# xmcd CD database file
#
# Track frame offsets:
#	187
#	15180
#	32170
#	48625
#	66235
#	81865
#	100292
#	115020
#	135737
#	149765
#	166407
#	184532
#
# Disc length: 2671 seconds
#
# Revision: 0
# Processed by: cddbd v1.5PL3 Copyright (c) Steve Scherf et al.
# Submitted via: CDex 1.50
#
DISCID=a20a6d0c
DTITLE=THUNDERHEAD - Were You Told The Truth About Hell?
DYEAR=1995
DGENRE=Hard Rock
TTITLE0=Hangin' By A Thread
TTITLE1=Crash Course In Life
TTITLE2=The Absence Of Angels
TTITLE3=Snap
TTITLE4=Thanx
TTITLE5=Here's To You America
TTITLE6=Schizophrenic Mind
TTITLE7=Inside Of The Dark Side
TTITLE8=Premonition
TTITLE9=The Show Has Just Begun
TTITLE10=Zero The Hero
TTITLE11=What Mama Don't Know
EXTD=YEAR: 1995
EXTT0=
EXTT1=
EXTT2=
EXTT3=
EXTT4=
EXTT5=
EXTT6=
EXTT7=
EXTT8=
EXTT9=
EXTT10=
EXTT11=
PLAYORDER=
